<svg width="38" height="38" viewBox="0 0 38 38" fill="none" xmlns="http://www.w3.org/2000/svg">
<path d="M21.6719 13.0625H16.3281C15.6713 13.0625 15.1406 13.5932 15.1406 14.25V34.4375C15.1406 35.0943 15.6713 35.625 16.3281 35.625H21.6719C22.3287 35.625 22.8594 35.0943 22.8594 34.4375V14.25C22.8594 13.5932 22.3287 13.0625 21.6719 13.0625ZM33.1016 2.375H27.7578C27.101 2.375 26.5703 2.90566 26.5703 3.5625V34.4375C26.5703 35.0943 27.101 35.625 27.7578 35.625H33.1016C33.7584 35.625 34.2891 35.0943 34.2891 34.4375V3.5625C34.2891 2.90566 33.7584 2.375 33.1016 2.375ZM10.2422 23.75H4.89844C4.2416 23.75 3.71094 24.2807 3.71094 24.9375V34.4375C3.71094 35.0943 4.2416 35.625 4.89844 35.625H10.2422C10.899 35.625 11.4297 35.0943 11.4297 34.4375V24.9375C11.4297 24.2807 10.899 23.75 10.2422 23.75Z" fill="#01AC1A"/>
</svg>
